<svg xmlns="http://www.w3.org/2000/svg" width="267" height="267" fill-rule="evenodd" stroke-linejoin="round" stroke-miterlimit="2" clip-rule="evenodd" id="visualize-imagine"><path fill="#e9ebec" d="M203.953,157.837C188.843,148.917 165.668,134.048 133.333,134.733C100.999,135.418 83.478,149.163 60.709,159.28C36.375,154.543 28.866,123.816 48.51,104.666C25.696,77.2 48.269,47.218 73.431,49.04C73.11,23.045 115.012,-0.154 148.939,35.204C157.844,21.548 181.2,22.847 189.265,36.99C220.854,25.277 253.995,72.617 227.83,106.92C240.227,132.027 232.903,154.219 203.953,157.837Z"></path><path fill="#e9ebec" d="M39.659,202.016C57.706,168.8 92.905,146.231 133.333,146.231C173.762,146.231 208.961,168.8 227.008,202.016C208.961,235.233 173.762,257.802 133.333,257.802C92.905,257.802 57.706,235.233 39.659,202.016Z"></path><path fill="#83a0ac" d="M79.965,160.562C95.659,151.451 113.891,146.231 133.333,146.231C152.775,146.231 171.008,151.451 186.702,160.562C195.611,172.01 200.92,186.398 200.92,202.016C200.92,217.635 195.611,232.023 186.702,243.471C171.008,252.582 152.775,257.802 133.333,257.802C113.891,257.802 95.659,252.582 79.965,243.471C71.055,232.023 65.746,217.635 65.746,202.016C65.746,186.398 71.055,172.01 79.965,160.562Z"></path><path fill="#f9b22a" d="M122.794,176.263C126.044,174.93 129.603,174.194 133.333,174.194C148.689,174.194 161.156,186.661 161.156,202.016C161.156,217.372 148.689,229.839 133.333,229.839C117.978,229.839 105.511,217.372 105.511,202.016C105.511,200.622 105.614,199.252 105.812,197.913C107.782,198.976 110.035,199.579 112.428,199.579C120.135,199.579 126.392,193.322 126.392,185.615C126.392,182.02 125.03,178.739 122.794,176.263Z"></path><path fill="#1c3d57" d="M36.913,200.525C36.407,201.455 36.407,202.578 36.913,203.508C55.489,237.698 91.72,260.927 133.333,260.927C174.947,260.927 211.178,237.698 229.754,203.508C230.259,202.578 230.259,201.455 229.754,200.525C211.178,166.335 174.947,143.106 133.333,143.106C91.72,143.106 55.489,166.335 36.913,200.525ZM43.232,202.015C60.984,170.591 94.698,149.356 133.333,149.356C171.969,149.356 205.683,170.591 223.435,202.015C205.683,233.442 171.969,254.677 133.333,254.677C94.698,254.677 60.984,233.442 43.232,202.017L43.232,202.015Z"></path><path fill="#1c3d57" d="M184.236 162.481C192.732 173.399 197.795 187.121 197.795 202.016 197.795 216.912 192.732 230.634 184.236 241.552 183.177 242.913 183.422 244.878 184.783 245.937 186.144 246.997 188.109 246.752 189.168 245.39 198.49 233.412 204.045 218.358 204.045 202.016 204.045 185.675 198.49 170.621 189.168 158.642 188.109 157.281 186.144 157.036 184.783 158.096 183.422 159.155 183.177 161.12 184.236 162.481zM82.431 241.552C73.934 230.634 68.871 216.912 68.871 202.016 68.871 187.121 73.934 173.399 82.431 162.481 83.49 161.12 83.245 159.155 81.884 158.096 80.523 157.036 78.558 157.281 77.498 158.642 68.177 170.621 62.621 185.675 62.621 202.016 62.621 218.358 68.177 233.412 77.498 245.39 78.558 246.752 80.523 246.997 81.884 245.937 83.245 244.878 83.49 242.913 82.431 241.552zM121.608 173.372C120.666 173.758 119.972 174.578 119.746 175.57 119.521 176.562 119.792 177.602 120.474 178.357 122.21 180.279 123.267 182.825 123.267 185.615 123.267 191.597 118.41 196.454 112.428 196.454 110.572 196.454 108.824 195.987 107.296 195.163 106.399 194.679 105.323 194.662 104.412 195.119 103.501 195.575 102.87 196.447 102.721 197.455 102.5 198.943 102.386 200.466 102.386 202.016 102.386 219.097 116.253 232.964 133.333 232.964 150.414 232.964 164.281 219.097 164.281 202.016 164.281 184.936 150.414 171.069 133.333 171.069 129.184 171.069 125.224 171.888 121.608 173.372zM108.639 202.281C109.858 202.558 111.126 202.704 112.428 202.704 121.86 202.704 129.517 195.047 129.517 185.615 129.517 182.865 128.866 180.266 127.71 177.963L127.71 177.963C129.516 177.542 131.399 177.319 133.333 177.319 146.964 177.319 158.031 188.386 158.031 202.016 158.031 215.647 146.964 226.714 133.333 226.714 119.791 226.714 108.78 215.791 108.639 202.281zM136.725 41.461C135.955 41.139 135.089 41.139 134.318 41.461L100.364 55.629C99.2 56.114 98.442 57.252 98.442 58.513 98.442 59.774 99.2 60.911 100.364 61.397L134.318 75.565C135.089 75.886 135.955 75.886 136.725 75.565L170.68 61.397C171.844 60.911 172.601 59.774 172.601 58.513 172.601 57.252 171.844 56.114 170.68 55.629L136.725 41.461zM135.522 47.731L161.361 58.513C161.361 58.513 135.522 69.295 135.522 69.295 135.522 69.295 109.682 58.513 109.682 58.513L135.522 47.731zM102.771 112.058L113.574 107.55C115.166 106.886 115.919 105.054 115.255 103.463 114.59 101.871 112.759 101.118 111.167 101.782L100.364 106.29C98.772 106.954 98.019 108.785 98.683 110.377 99.348 111.969 101.179 112.722 102.771 112.058zM170.68 106.29L159.877 101.782C158.285 101.118 156.453 101.871 155.789 103.463 155.125 105.054 155.878 106.886 157.47 107.55L168.273 112.058C169.865 112.722 171.696 111.969 172.36 110.377 173.025 108.785 172.271 106.954 170.68 106.29zM123.309 103.488L128.05 101.51C129.642 100.845 130.395 99.014 129.731 97.422 129.067 95.83 127.235 95.077 125.643 95.742L120.902 97.72C119.31 98.384 118.557 100.216 119.221 101.807 119.885 103.399 121.717 104.152 123.309 103.488zM150.142 97.72L145.4 95.742C143.809 95.077 141.977 95.83 141.313 97.422 140.649 99.014 141.402 100.845 142.994 101.51L147.735 103.488C149.327 104.152 151.158 103.399 151.823 101.807 152.487 100.216 151.734 98.384 150.142 97.72z"></path><path fill="#1c3d57" d="M98.442,109.215C98.442,110.476 99.2,111.613 100.364,112.099L134.318,126.267C135.089,126.588 135.955,126.588 136.725,126.267L170.68,112.099C171.844,111.613 172.601,110.476 172.601,109.215L172.601,58.513C172.601,57.468 172.079,56.492 171.209,55.912C170.339,55.333 169.238,55.226 168.273,55.629L135.522,69.295C135.522,69.295 102.771,55.629 102.771,55.629C101.806,55.226 100.704,55.333 99.835,55.912C98.965,56.492 98.442,57.468 98.442,58.513L98.442,109.215ZM104.692,107.133L104.692,63.203C104.692,63.203 134.318,75.565 134.318,75.565C135.089,75.886 135.955,75.886 136.725,75.565L166.351,63.203C166.351,63.203 166.351,107.133 166.351,107.133C166.351,107.133 135.522,119.997 135.522,119.997L104.692,107.133Z"></path><path fill="#1c3d57" d="M132.397,72.371L132.397,123.383C132.397,125.108 133.797,126.508 135.522,126.508C137.247,126.508 138.647,125.108 138.647,123.383L138.647,72.371C138.647,70.646 137.247,69.246 135.522,69.246C133.797,69.246 132.397,70.646 132.397,72.371Z"></path><path fill="#1c3d57" d="M61.307,156.213C39.373,151.943 32.986,124.164 50.691,106.904C51.858,105.766 51.955,103.923 50.914,102.669C44.64,95.116 42.045,87.381 42.201,80.262C42.559,63.911 57.312,51.006 73.205,52.157C74.077,52.22 74.936,51.915 75.573,51.315C76.21,50.715 76.566,49.876 76.555,49.002C76.469,42.045 79.844,35.345 85.329,30.18C98.725,17.566 124.508,14.256 146.684,37.367C147.344,38.055 148.281,38.404 149.23,38.315C150.179,38.226 151.036,37.709 151.556,36.911C155.396,31.022 162.4,28.461 169.266,28.793C176.179,29.128 183.049,32.396 186.551,38.538C187.309,39.867 188.917,40.452 190.352,39.92C201.789,35.679 213.409,40.145 221.77,48.833C234.692,62.26 239.986,85.83 225.345,105.025C224.625,105.969 224.503,107.239 225.028,108.303C230.748,119.888 232.121,130.777 228.522,139.21C224.995,147.476 216.658,153.1 203.565,154.736C201.854,154.95 200.638,156.513 200.852,158.225C201.066,159.936 202.629,161.152 204.34,160.938C220.199,158.956 229.998,151.675 234.271,141.664C238.293,132.238 237.399,120.141 231.455,107.26C246.785,85.588 240.717,59.506 226.273,44.499C216.744,34.597 203.632,29.533 190.577,33.272C185.748,26.636 177.727,22.946 169.568,22.551C161.768,22.173 153.915,24.805 148.65,30.506C123.921,6.965 95.832,11.705 81.044,25.63C75.086,31.241 71.253,38.366 70.458,45.846C52.389,46.277 36.363,61.337 35.952,80.126C35.783,87.849 38.233,96.233 44.372,104.462C25.31,125.569 34.221,157.307 60.112,162.348C61.805,162.678 63.447,161.571 63.777,159.878C64.106,158.185 63,156.543 61.307,156.213Z"></path></svg>